<svg width="407.04" height="104.867" viewBox="0 0 369.667 95.238" class="css-1j8o68f"><path xmlns="http://www.w3.org/2000/svg" d="M41.667 0 0 23.81v47.619l41.667 23.81 41.655-23.803.012-.02V23.81L41.667 0zm0 9.165 29.631 16.93-8.014 4.581L41.667 18.33 20.055 30.68l-8.021-4.585 29.633-16.93zm17.613 28.39V53.1l-13.602-7.768V29.786l13.602 7.769zm-21.624-7.77V45.33L24.057 53.1V37.555l13.6-7.77zm0 53.997L8.018 66.848V32.967l8.017 4.58v24.716L37.656 74.62v9.163zm-9.595-23.81L41.663 52.2l13.606 7.773-13.602 7.77-13.606-7.77zm47.255 6.876L45.678 83.782V74.62l21.62-12.351v-24.72l8.017-4.581v33.88z" fill="#8f3abd"/><g transform="translate(98.936 9.157) scale(2.94464)" fill="#ebebeb"/></svg>